<svg width="363" height="32" viewBox="0 0 363 32" fill="none" xmlns="http://www.w3.org/2000/svg">
<path d="M52 0.5C51.7239 0.5 51.5 0.723858 51.5 1C51.5 1.27614 51.7239 1.5 52 1.5V0.5ZM1 30.5C0.723858 30.5 0.5 30.7239 0.5 31C0.5 31.2761 0.723858 31.5 1 31.5V30.5ZM350.875 31.5C351.151 31.5 351.375 31.2761 351.375 31C351.375 30.7239 351.151 30.5 350.875 30.5V31.5ZM273.383 15L272.923 14.8049L272.923 14.8049L273.383 15ZM306.093 15L305.633 14.8049L305.633 14.8049L306.093 15ZM362 31.5C362.276 31.5 362.5 31.2761 362.5 31C362.5 30.7239 362.276 30.5 362 30.5V31.5ZM52 1.5H252V0.5H52V1.5ZM1 31.5H101V30.5H1V31.5ZM52 16.5H102V15.5H52V16.5ZM52.5002 0.5C49.7477 0.5 47.6428 1.48712 46.2283 3.00259C44.8207 4.51071 44.125 6.51166 44.125 8.5C44.125 10.4883 44.8207 12.4893 46.2283 13.9974C47.6428 15.5129 49.7477 16.5 52.5002 16.5V15.5C50.0025 15.5 48.1699 14.6121 46.9594 13.3151C45.7419 12.0107 45.125 10.2617 45.125 8.5C45.125 6.73834 45.7419 4.98929 46.9594 3.68491C48.1699 2.38788 50.0025 1.5 52.5002 1.5V0.5ZM21.8751 0.5C19.1227 0.5 17.0177 1.48712 15.6033 3.00259C14.1956 4.51071 13.5 6.51166 13.5 8.5C13.5 10.4883 14.1956 12.4893 15.6033 13.9974C17.0177 15.5129 19.1227 16.5 21.8751 16.5V15.5C19.3775 15.5 17.5449 14.6121 16.3343 13.3151C15.1169 12.0107 14.5 10.2617 14.5 8.5C14.5 6.73834 15.1169 4.98929 16.3343 3.68491C17.5449 2.38788 19.3775 1.5 21.8751 1.5V0.5ZM21.6249 16.5C24.3773 16.5 26.4823 15.5129 27.8967 13.9974C29.3044 12.4893 30 10.4883 30 8.5C30 6.51166 29.3044 4.51071 27.8967 3.00259C26.4823 1.48712 24.3773 0.5 21.6249 0.5V1.5C24.1225 1.5 25.9551 2.38788 27.1657 3.68491C28.3831 4.98929 29 6.73834 29 8.5C29 10.2617 28.3831 12.0107 27.1657 13.3151C25.9551 14.6121 24.1225 15.5 21.6249 15.5V16.5ZM59.8751 0.5C57.1227 0.5 55.0177 1.48712 53.6033 3.00259C52.1956 4.51071 51.5 6.51166 51.5 8.5C51.5 10.4883 52.1956 12.4893 53.6033 13.9974C55.0177 15.5129 57.1227 16.5 59.8751 16.5V15.5C57.3775 15.5 55.5449 14.6121 54.3343 13.3151C53.1169 12.0107 52.5 10.2617 52.5 8.5C52.5 6.73834 53.1169 4.98929 54.3343 3.68491C55.5449 2.38788 57.3775 1.5 59.8751 1.5V0.5ZM101 31.5C103.752 31.5 105.857 30.5129 107.272 28.9974C108.679 27.4893 109.375 25.4883 109.375 23.5C109.375 21.5117 108.679 19.5107 107.272 18.0026C105.857 16.4871 103.752 15.5 101 15.5V16.5C103.498 16.5 105.33 17.3879 106.541 18.6849C107.758 19.9893 108.375 21.7383 108.375 23.5C108.375 25.2617 107.758 27.0107 106.541 28.3151C105.33 29.6121 103.498 30.5 101 30.5V31.5ZM93 31.5C95.7524 31.5 97.8574 30.5129 99.2719 28.9974C100.679 27.4893 101.375 25.4883 101.375 23.5C101.375 21.5117 100.679 19.5107 99.2719 18.0026C97.8574 16.4871 95.7524 15.5 93 15.5V16.5C95.4977 16.5 97.3302 17.3879 98.5408 18.6849C99.7583 19.9893 100.375 21.7383 100.375 23.5C100.375 25.2617 99.7583 27.0107 98.5408 28.3151C97.3302 29.6121 95.4977 30.5 93 30.5V31.5ZM350.875 30.5H159.875V31.5H350.875V30.5ZM159.875 30.5H151.875V31.5H159.875V30.5ZM151.875 30.5H150.875V31.5H151.875V30.5ZM251.875 15.5H251.375V16.5H251.875V15.5ZM251.375 15.5H244V16.5H251.375V15.5ZM244 15.5H159.875V16.5H244V15.5ZM159.875 15.5H151.875V16.5H159.875V15.5ZM251.375 1.5C253.873 1.5 255.705 2.38788 256.916 3.68491C258.133 4.98929 258.75 6.73834 258.75 8.5C258.75 10.2617 258.133 12.0107 256.916 13.3151C255.705 14.6121 253.873 15.5 251.375 15.5V16.5C254.127 16.5 256.232 15.5129 257.647 13.9974C259.054 12.4893 259.75 10.4883 259.75 8.5C259.75 6.51166 259.054 4.51071 257.647 3.00259C256.232 1.48712 254.127 0.5 251.375 0.5V1.5ZM244 1.5C246.498 1.5 248.33 2.38788 249.541 3.68491C250.758 4.98929 251.375 6.73834 251.375 8.5C251.375 10.2617 250.758 12.0107 249.541 13.3151C248.33 14.6121 246.498 15.5 244 15.5V16.5C246.752 16.5 248.857 15.5129 250.272 13.9974C251.679 12.4893 252.375 10.4883 252.375 8.5C252.375 6.51166 251.679 4.51071 250.272 3.00259C248.857 1.48712 246.752 0.5 244 0.5V1.5ZM151.875 30.5C149.377 30.5 147.545 29.6121 146.334 28.3151C145.117 27.0107 144.5 25.2617 144.5 23.5C144.5 21.7383 145.117 19.9893 146.334 18.6849C147.545 17.3879 149.377 16.5 151.875 16.5V15.5C149.123 15.5 147.018 16.4871 145.603 18.0026C144.196 19.5107 143.5 21.5117 143.5 23.5C143.5 25.4883 144.196 27.4893 145.603 28.9974C147.018 30.5129 149.123 31.5 151.875 31.5V30.5ZM159.875 30.5C157.377 30.5 155.545 29.6121 154.334 28.3151C153.117 27.0107 152.5 25.2617 152.5 23.5C152.5 21.7383 153.117 19.9893 154.334 18.6849C155.545 17.3879 157.377 16.5 159.875 16.5V15.5C157.123 15.5 155.018 16.4871 153.603 18.0026C152.196 19.5107 151.5 21.5117 151.5 23.5C151.5 25.4883 152.196 27.4893 153.603 28.9974C155.018 30.5129 157.123 31.5 159.875 31.5V30.5ZM278.5 30.8751C278.5 28.1227 277.513 26.0177 275.997 24.6033C274.489 23.1956 272.488 22.5 270.5 22.5C268.512 22.5 266.511 23.1956 265.003 24.6033C263.487 26.0177 262.5 28.1227 262.5 30.8751H263.5C263.5 28.3775 264.388 26.5449 265.685 25.3343C266.989 24.1169 268.738 23.5 270.5 23.5C272.262 23.5 274.011 24.1169 275.315 25.3343C276.612 26.5449 277.5 28.3775 277.5 30.8751H278.5ZM282.5 31C282.5 26.8716 281.012 23.7351 278.746 21.6334C276.488 19.5388 273.487 18.5 270.5 18.5C267.513 18.5 264.512 19.5388 262.254 21.6334C259.988 23.7351 258.5 26.8716 258.5 31H259.5C259.5 27.1284 260.887 24.2649 262.934 22.3666C264.988 20.4612 267.737 19.5 270.5 19.5C273.263 19.5 276.012 20.4612 278.066 22.3666C280.113 24.2649 281.5 27.1284 281.5 31H282.5ZM286.5 31C286.5 25.5364 284.511 21.3994 281.494 18.6316C278.486 15.8711 274.486 14.5 270.5 14.5C266.514 14.5 262.514 15.8711 259.506 18.6316C256.489 21.3994 254.5 25.5364 254.5 31H255.5C255.5 25.7969 257.386 21.9339 260.182 19.3684C262.986 16.7956 266.736 15.5 270.5 15.5C274.264 15.5 278.014 16.7956 280.818 19.3684C283.614 21.9339 285.5 25.7969 285.5 31H286.5ZM294.66 17.7788C291.764 11.906 282.73 12.0741 280.204 18.3123L281.131 18.6877C283.325 13.2691 291.24 13.1039 293.763 18.2212L294.66 17.7788ZM298.266 15.9832C294.073 7.30728 280.916 7.33842 276.791 16.0805L277.695 16.5073C281.461 8.52801 293.538 8.49705 297.365 16.4183L298.266 15.9832ZM272.923 14.8049C272.891 14.8817 272.859 14.9589 272.827 15.0365L273.754 15.4121C273.783 15.3393 273.813 15.2669 273.844 15.1951L272.923 14.8049ZM302.18 14.8049C299.545 8.58868 293.528 5.5 287.551 5.5C281.575 5.5 275.558 8.58868 272.923 14.8049L273.844 15.1951C276.295 9.41132 281.903 6.5 287.551 6.5C293.2 6.5 298.808 9.41132 301.259 15.1951L302.18 14.8049ZM327.37 17.7788C324.473 11.906 315.439 12.0741 312.913 18.3123L313.84 18.6877C316.034 13.2691 323.949 13.1039 326.473 18.2212L327.37 17.7788ZM330.975 15.9832C326.783 7.30728 313.626 7.33842 309.5 16.0805L310.404 16.5073C314.17 8.52801 326.247 8.49705 330.075 16.4183L330.975 15.9832ZM305.633 14.8049C305.6 14.8817 305.568 14.9589 305.537 15.0365L306.463 15.4121C306.493 15.3393 306.523 15.2669 306.553 15.1951L305.633 14.8049ZM334.889 14.8049C332.255 8.58868 326.238 5.5 320.261 5.5C314.284 5.5 308.267 8.58868 305.633 14.8049L306.553 15.1951C309.005 9.41132 314.613 6.5 320.261 6.5C325.909 6.5 331.517 9.41132 333.969 15.1951L334.889 14.8049ZM311.5 30.8751C311.5 28.1227 310.513 26.0177 308.997 24.6033C307.489 23.1956 305.488 22.5 303.5 22.5C301.512 22.5 299.511 23.1956 298.003 24.6033C296.487 26.0177 295.5 28.1227 295.5 30.8751H296.5C296.5 28.3775 297.388 26.5449 298.685 25.3343C299.989 24.1169 301.738 23.5 303.5 23.5C305.262 23.5 307.011 24.1169 308.315 25.3343C309.612 26.5449 310.5 28.3775 310.5 30.8751H311.5ZM315.5 31C315.5 26.8716 314.012 23.7351 311.746 21.6334C309.488 19.5388 306.487 18.5 303.5 18.5C300.513 18.5 297.512 19.5388 295.254 21.6334C292.988 23.7351 291.5 26.8716 291.5 31H292.5C292.5 27.1284 293.887 24.2649 295.934 22.3666C297.988 20.4612 300.737 19.5 303.5 19.5C306.263 19.5 309.012 20.4612 311.066 22.3666C313.113 24.2649 314.5 27.1284 314.5 31H315.5ZM319.5 31C319.5 25.5364 317.511 21.3994 314.494 18.6316C311.486 15.8711 307.486 14.5 303.5 14.5C299.514 14.5 295.514 15.8711 292.506 18.6316C289.489 21.3994 287.5 25.5364 287.5 31H288.5C288.5 25.7969 290.386 21.9339 293.182 19.3684C295.986 16.7956 299.736 15.5 303.5 15.5C307.264 15.5 311.014 16.7956 313.818 19.3684C316.614 21.9339 318.5 25.7969 318.5 31H319.5ZM344.5 30.8751C344.5 28.1227 343.513 26.0177 341.997 24.6033C340.489 23.1956 338.488 22.5 336.5 22.5C334.512 22.5 332.511 23.1956 331.003 24.6033C329.487 26.0177 328.5 28.1227 328.5 30.8751H329.5C329.5 28.3775 330.388 26.5449 331.685 25.3343C332.989 24.1169 334.738 23.5 336.5 23.5C338.262 23.5 340.011 24.1169 341.315 25.3343C342.612 26.5449 343.5 28.3775 343.5 30.8751H344.5ZM348.5 31C348.5 26.8716 347.012 23.7351 344.746 21.6334C342.488 19.5388 339.487 18.5 336.5 18.5C333.513 18.5 330.512 19.5388 328.254 21.6334C325.988 23.7351 324.5 26.8716 324.5 31H325.5C325.5 27.1284 326.887 24.2649 328.934 22.3666C330.988 20.4612 333.737 19.5 336.5 19.5C339.263 19.5 342.012 20.4612 344.066 22.3666C346.113 24.2649 347.5 27.1284 347.5 31H348.5ZM352.5 31C352.5 25.5364 350.511 21.3994 347.494 18.6316C344.486 15.8711 340.486 14.5 336.5 14.5C332.514 14.5 328.514 15.8711 325.506 18.6316C322.489 21.3994 320.5 25.5364 320.5 31H321.5C321.5 25.7969 323.386 21.9339 326.182 19.3684C328.986 16.7956 332.736 15.5 336.5 15.5C340.264 15.5 344.014 16.7956 346.818 19.3684C349.614 21.9339 351.5 25.7969 351.5 31H352.5ZM351 31.5H362V30.5H351V31.5Z" fill="#73CEFF"/>
</svg>
