<svg width="44" height="43" viewBox="0 0 44 43" fill="none" xmlns="http://www.w3.org/2000/svg">
<path d="M39.5 21.5C39.5 31.165 31.665 39 22 39C12.335 39 4.5 31.165 4.5 21.5C4.5 11.835 12.335 4 22 4C31.665 4 39.5 11.835 39.5 21.5ZM13.5 21.5C13.5 26 17 30 22 30C27 30 30.5 27 30.5 21.5C30.5 16 26.5 13 22 13C17 13 13.5 17 13.5 21.5Z" fill="url(#paint0_radial_5_2)"/>
<path d="M16.5 0H26.5L27.5 6H15.5L16.5 0Z" fill="url(#paint1_radial_5_2)"/>
<path d="M26.5 43H16.5L15.5 37H27.5L26.5 43Z" fill="url(#paint2_radial_5_2)"/>
<path d="M0 14.634L5 5.97372L10.6962 8.1077L4.69615 18.5L0 14.634Z" fill="url(#paint3_radial_5_2)"/>
<path d="M5 36.634L0 27.9737L4.69615 24.1077L10.6962 34.5L5 36.634Z" fill="url(#paint4_radial_5_2)"/>
<path d="M44 14.634L39 5.97372L33.3038 8.1077L39.3038 18.5L44 14.634Z" fill="url(#paint5_radial_5_2)"/>
<path d="M39 36.634L44 27.9737L39.3038 24.1077L33.3038 34.5L39 36.634Z" fill="url(#paint6_radial_5_2)"/>
<defs>
<radialGradient id="paint0_radial_5_2" cx="0" cy="0" r="1" gradientUnits="userSpaceOnUse" gradientTransform="translate(21.5 21.5) rotate(45.6296) scale(32.1753 32.9236)">
<stop stop-color="#D0D2D3"/>
<stop offset="1" stop-color="#797979"/>
</radialGradient>
<radialGradient id="paint1_radial_5_2" cx="0" cy="0" r="1" gradientUnits="userSpaceOnUse" gradientTransform="translate(21.5 21.5) rotate(45.6296) scale(32.1753 32.9236)">
<stop stop-color="#D0D2D3"/>
<stop offset="1" stop-color="#797979"/>
</radialGradient>
<radialGradient id="paint2_radial_5_2" cx="0" cy="0" r="1" gradientUnits="userSpaceOnUse" gradientTransform="translate(21.5 21.5) rotate(45.6296) scale(32.1753 32.9236)">
<stop stop-color="#D0D2D3"/>
<stop offset="1" stop-color="#797979"/>
</radialGradient>
<radialGradient id="paint3_radial_5_2" cx="0" cy="0" r="1" gradientUnits="userSpaceOnUse" gradientTransform="translate(21.5 21.5) rotate(45.6296) scale(32.1753 32.9236)">
<stop stop-color="#D0D2D3"/>
<stop offset="1" stop-color="#797979"/>
</radialGradient>
<radialGradient id="paint4_radial_5_2" cx="0" cy="0" r="1" gradientUnits="userSpaceOnUse" gradientTransform="translate(21.5 21.5) rotate(45.6296) scale(32.1753 32.9236)">
<stop stop-color="#D0D2D3"/>
<stop offset="1" stop-color="#797979"/>
</radialGradient>
<radialGradient id="paint5_radial_5_2" cx="0" cy="0" r="1" gradientUnits="userSpaceOnUse" gradientTransform="translate(21.5 21.5) rotate(45.6296) scale(32.1753 32.9236)">
<stop stop-color="#D0D2D3"/>
<stop offset="1" stop-color="#797979"/>
</radialGradient>
<radialGradient id="paint6_radial_5_2" cx="0" cy="0" r="1" gradientUnits="userSpaceOnUse" gradientTransform="translate(21.5 21.5) rotate(45.6296) scale(32.1753 32.9236)">
<stop stop-color="#D0D2D3"/>
<stop offset="1" stop-color="#797979"/>
</radialGradient>
</defs>
</svg>
