<svg width="68" height="68" viewBox="0 0 68 68" fill="none" xmlns="http://www.w3.org/2000/svg">
<g filter="url(#filter0_d_11_6)">
<path d="M64 30C64 46.5685 50.5685 60 34 60C17.4315 60 4 46.5685 4 30C4 13.4315 17.4315 0 34 0C50.5685 0 64 13.4315 64 30Z" fill="url(#paint0_linear_11_6)" shape-rendering="crispEdges"/>
<path d="M24.0409 10C24.0409 8.89543 24.9364 8 26.0409 8C27.1455 8 28.0409 8.89543 28.0409 10V16C28.0409 17.1046 27.1455 18 26.0409 18C24.9364 18 24.0409 17.1046 24.0409 16V10Z" fill="black" fill-opacity="0.5" shape-rendering="crispEdges"/>
<path d="M40.0409 10C40.0409 8.89543 40.9364 8 42.0409 8C43.1455 8 44.0409 8.89543 44.0409 10V16C44.0409 17.1046 43.1455 18 42.0409 18C40.9364 18 40.0409 17.1046 40.0409 16V10Z" fill="black" fill-opacity="0.5" shape-rendering="crispEdges"/>
<path fill-rule="evenodd" clip-rule="evenodd" d="M23.5409 13H17.0409C15.3841 13 14.0409 14.3431 14.0409 16V45C14.0409 46.6569 15.3841 48 17.0409 48H51.0409C52.6978 48 54.0409 46.6569 54.0409 45V16C54.0409 14.3431 52.6978 13 51.0409 13H44.5409V16C44.5409 17.3807 43.4216 18.5 42.0409 18.5C40.6602 18.5 39.5409 17.3807 39.5409 16V13H28.5409V16C28.5409 17.3807 27.4216 18.5 26.0409 18.5C24.6602 18.5 23.5409 17.3807 23.5409 16V13ZM18.0409 25.5C18.0409 23.8431 19.3841 22.5 21.0409 22.5H47.0409C48.6978 22.5 50.0409 23.8431 50.0409 25.5V41C50.0409 42.6569 48.6978 44 47.0409 44H21.0409C19.3841 44 18.0409 42.6569 18.0409 41V25.5Z" fill="black" fill-opacity="0.5" shape-rendering="crispEdges"/>
<path d="M35.294 39.253C34.3177 40.2294 32.7348 40.2294 31.7584 39.253L26.8087 34.3033C25.8324 33.327 25.8324 31.7441 26.8087 30.7678C27.785 29.7915 29.3679 29.7915 30.3442 30.7678L35.294 35.7175C36.2703 36.6938 36.2703 38.2767 35.294 39.253Z" fill="black" fill-opacity="0.5" shape-rendering="crispEdges"/>
<path d="M31.8087 39.0815C30.8324 38.1052 30.8324 36.5223 31.8087 35.5459L39.5869 27.7678C40.5632 26.7915 42.1461 26.7915 43.1224 27.7678C44.0987 28.7441 44.0987 30.327 43.1224 31.3033L35.3442 39.0815C34.3679 40.0578 32.785 40.0578 31.8087 39.0815Z" fill="black" fill-opacity="0.5" shape-rendering="crispEdges"/>
</g>
<defs>
<filter id="filter0_d_11_6" x="0" y="0" width="68" height="68" filterUnits="userSpaceOnUse" color-interpolation-filters="sRGB">
<feFlood flood-opacity="0" result="BackgroundImageFix"/>
<feColorMatrix in="SourceAlpha" type="matrix" values="0 0 0 0 0 0 0 0 0 0 0 0 0 0 0 0 0 0 127 0" result="hardAlpha"/>
<feOffset dy="4"/>
<feGaussianBlur stdDeviation="2"/>
<feComposite in2="hardAlpha" operator="out"/>
<feColorMatrix type="matrix" values="0 0 0 0 0 0 0 0 0 0 0 0 0 0 0 0 0 0 0.25 0"/>
<feBlend mode="normal" in2="BackgroundImageFix" result="effect1_dropShadow_11_6"/>
<feBlend mode="normal" in="SourceGraphic" in2="effect1_dropShadow_11_6" result="shape"/>
</filter>
<linearGradient id="paint0_linear_11_6" x1="4.04093" y1="-2" x2="64.0409" y2="58" gradientUnits="userSpaceOnUse">
<stop stop-color="#5BC5FF"/>
<stop offset="1" stop-color="#6BFFBE"/>
</linearGradient>
</defs>
</svg>
