<svg width="309" height="32" viewBox="0 0 309 32" fill="none" xmlns="http://www.w3.org/2000/svg">
<path d="M1 30.5C0.723858 30.5 0.5 30.7239 0.5 31C0.5 31.2761 0.723858 31.5 1 31.5V30.5ZM28.3835 15L27.9231 14.8049L27.9231 14.8049L28.3835 15ZM100 1.5H300V0.5H100V1.5ZM1 31.5H201V30.5H1V31.5ZM100 16.5H200V15.5H100V16.5ZM250 16.5H300V15.5H250V16.5ZM100.5 0.5C97.7477 0.5 95.6428 1.48712 94.2283 3.00259C92.8207 4.51071 92.125 6.51166 92.125 8.5C92.125 10.4883 92.8207 12.4893 94.2283 13.9974C95.6428 15.5129 97.7477 16.5 100.5 16.5V15.5C98.0025 15.5 96.1699 14.6121 94.9594 13.3151C93.7419 12.0107 93.125 10.2617 93.125 8.5C93.125 6.73834 93.7419 4.98929 94.9594 3.68491C96.1699 2.38788 98.0025 1.5 100.5 1.5V0.5ZM33.5 30.8751C33.5 28.1227 32.5129 26.0177 30.9974 24.6033C29.4893 23.1956 27.4883 22.5 25.5 22.5C23.5117 22.5 21.5107 23.1956 20.0026 24.6033C18.4871 26.0177 17.5 28.1227 17.5 30.8751H18.5C18.5 28.3775 19.3879 26.5449 20.6849 25.3343C21.9893 24.1169 23.7383 23.5 25.5 23.5C27.2617 23.5 29.0107 24.1169 30.3151 25.3343C31.6121 26.5449 32.5 28.3775 32.5 30.8751H33.5ZM37.5 31C37.5 26.8716 36.0121 23.7351 33.7463 21.6334C31.488 19.5388 28.4874 18.5 25.5 18.5C22.5126 18.5 19.512 19.5388 17.2537 21.6334C14.9879 23.7351 13.5 26.8716 13.5 31H14.5C14.5 27.1284 15.8871 24.2649 17.9338 22.3666C19.988 20.4612 22.7374 19.5 25.5 19.5C28.2626 19.5 31.012 20.4612 33.0662 22.3666C35.1129 24.2649 36.5 27.1284 36.5 31H37.5ZM41.5 31C41.5 25.5364 39.5108 21.3994 36.4943 18.6316C33.4858 15.8711 29.4859 14.5 25.5 14.5C21.5141 14.5 17.5142 15.8711 14.5057 18.6316C11.4892 21.3994 9.5 25.5364 9.5 31H10.5C10.5 25.7969 12.3858 21.9339 15.1818 19.3684C17.9858 16.7956 21.7359 15.5 25.5 15.5C29.2641 15.5 33.0142 16.7956 35.8182 19.3684C38.6142 21.9339 40.5 25.7969 40.5 31H41.5ZM49.6601 17.7788C46.7638 11.906 37.73 12.0741 35.2037 18.3123L36.1305 18.6877C38.3249 13.2691 46.2396 13.1039 48.7633 18.2212L49.6601 17.7788ZM53.2658 15.9832C49.0735 7.30728 35.9162 7.33842 31.7906 16.0805L32.695 16.5073C36.4605 8.52801 48.5377 8.49705 52.3654 16.4183L53.2658 15.9832ZM27.9231 14.8049C27.8906 14.8816 27.8586 14.9588 27.8271 15.0365L28.7539 15.4121C28.7834 15.3393 28.8134 15.267 28.8438 15.1951L27.9231 14.8049ZM57.1798 14.8049C54.5451 8.58868 48.5282 5.5 42.5514 5.5C36.5746 5.5 30.5577 8.58868 27.9231 14.8049L28.8438 15.1951C31.2951 9.41132 36.9032 6.5 42.5514 6.5C48.1996 6.5 53.8077 9.41132 56.259 15.1951L57.1798 14.8049ZM66.5 30.8751C66.5 28.1227 65.5129 26.0177 63.9974 24.6033C62.4893 23.1956 60.4883 22.5 58.5 22.5C56.5117 22.5 54.5107 23.1956 53.0026 24.6033C51.4871 26.0177 50.5 28.1227 50.5 30.8751H51.5C51.5 28.3775 52.3879 26.5449 53.6849 25.3343C54.9893 24.1169 56.7383 23.5 58.5 23.5C60.2617 23.5 62.0107 24.1169 63.3151 25.3343C64.6121 26.5449 65.5 28.3775 65.5 30.8751H66.5ZM70.5 31C70.5 26.8716 69.0121 23.7351 66.7463 21.6334C64.488 19.5388 61.4874 18.5 58.5 18.5C55.5126 18.5 52.512 19.5388 50.2537 21.6334C47.9879 23.7351 46.5 26.8716 46.5 31H47.5C47.5 27.1284 48.8871 24.2649 50.9338 22.3666C52.988 20.4612 55.7374 19.5 58.5 19.5C61.2626 19.5 64.012 20.4612 66.0662 22.3666C68.1129 24.2649 69.5 27.1284 69.5 31H70.5ZM74.5 31C74.5 25.5364 72.5108 21.3994 69.4943 18.6316C66.4858 15.8711 62.4859 14.5 58.5 14.5C54.5141 14.5 50.5142 15.8711 47.5057 18.6316C44.4892 21.3994 42.5 25.5364 42.5 31H43.5C43.5 25.7969 45.3858 21.9339 48.1818 19.3684C50.9858 16.7956 54.7359 15.5 58.5 15.5C62.2641 15.5 66.0142 16.7956 68.8182 19.3684C71.6142 21.9339 73.5 25.7969 73.5 31H74.5ZM107.875 0.5C105.123 0.5 103.018 1.48712 101.603 3.00259C100.196 4.51071 99.5 6.51166 99.5 8.5C99.5 10.4883 100.196 12.4893 101.603 13.9974C103.018 15.5129 105.123 16.5 107.875 16.5V15.5C105.377 15.5 103.545 14.6121 102.334 13.3151C101.117 12.0107 100.5 10.2617 100.5 8.5C100.5 6.73834 101.117 4.98929 102.334 3.68491C103.545 2.38788 105.377 1.5 107.875 1.5V0.5ZM300 16.5C302.752 16.5 304.857 15.5129 306.272 13.9974C307.679 12.4893 308.375 10.4883 308.375 8.5C308.375 6.51166 307.679 4.51071 306.272 3.00259C304.857 1.48712 302.752 0.5 300 0.5V1.5C302.498 1.5 304.33 2.38788 305.541 3.68491C306.758 4.98929 307.375 6.73834 307.375 8.5C307.375 10.2617 306.758 12.0107 305.541 13.3151C304.33 14.6121 302.498 15.5 300 15.5V16.5ZM200 31.5C202.752 31.5 204.857 30.5129 206.272 28.9974C207.679 27.4893 208.375 25.4883 208.375 23.5C208.375 21.5117 207.679 19.5107 206.272 18.0026C204.857 16.4871 202.752 15.5 200 15.5V16.5C202.498 16.5 204.33 17.3879 205.541 18.6849C206.758 19.9893 207.375 21.7383 207.375 23.5C207.375 25.2617 206.758 27.0107 205.541 28.3151C204.33 29.6121 202.498 30.5 200 30.5V31.5ZM292 16.5C294.752 16.5 296.857 15.5129 298.272 13.9974C299.679 12.4893 300.375 10.4883 300.375 8.5C300.375 6.51166 299.679 4.51071 298.272 3.00259C296.857 1.48712 294.752 0.5 292 0.5V1.5C294.498 1.5 296.33 2.38788 297.541 3.68491C298.758 4.98929 299.375 6.73834 299.375 8.5C299.375 10.2617 298.758 12.0107 297.541 13.3151C296.33 14.6121 294.498 15.5 292 15.5V16.5ZM192 31.5C194.752 31.5 196.857 30.5129 198.272 28.9974C199.679 27.4893 200.375 25.4883 200.375 23.5C200.375 21.5117 199.679 19.5107 198.272 18.0026C196.857 16.4871 194.752 15.5 192 15.5V16.5C194.498 16.5 196.33 17.3879 197.541 18.6849C198.758 19.9893 199.375 21.7383 199.375 23.5C199.375 25.2617 198.758 27.0107 197.541 28.3151C196.33 29.6121 194.498 30.5 192 30.5V31.5ZM249.5 14C249.5 14.8284 248.828 15.5 248 15.5V16.5C249.381 16.5 250.5 15.3807 250.5 14H249.5ZM248 15.5C247.172 15.5 246.5 14.8284 246.5 14H245.5C245.5 15.3807 246.619 16.5 248 16.5V15.5ZM246.5 14C246.5 13.1716 247.172 12.5 248 12.5V11.5C246.619 11.5 245.5 12.6193 245.5 14H246.5ZM248 12.5C248.828 12.5 249.5 13.1716 249.5 14H250.5C250.5 12.6193 249.381 11.5 248 11.5V12.5ZM247.5 14.5C247.356 14.5 247.166 14.5142 247.001 14.6027C246.91 14.652 246.795 14.7415 246.73 14.8925C246.661 15.049 246.676 15.2015 246.713 15.3144C246.777 15.5064 246.924 15.6373 247.014 15.7088C247.124 15.7951 247.257 15.875 247.401 15.9472C247.974 16.2335 248.926 16.5 250 16.5V15.5C249.074 15.5 248.276 15.2665 247.849 15.0528C247.743 15 247.673 14.9549 247.634 14.924C247.576 14.8784 247.629 14.8999 247.662 14.9981C247.684 15.0642 247.698 15.1737 247.646 15.2921C247.597 15.405 247.516 15.4612 247.475 15.4832C247.413 15.517 247.394 15.5 247.5 15.5V14.5ZM249 14C249 14.2414 248.995 14.8402 249.228 15.3845C249.349 15.6662 249.541 15.9526 249.845 16.1667C250.152 16.383 250.538 16.5 251 16.5L251 15.5C250.712 15.5 250.535 15.4295 250.421 15.3489C250.303 15.2662 250.214 15.1462 250.147 14.9905C250.005 14.6598 250 14.2586 250 14H249Z" fill="#73CEFF"/>
</svg>
