<svg width="42" height="54" viewBox="0 0 42 54" fill="none" xmlns="http://www.w3.org/2000/svg">
<path fill-rule="evenodd" clip-rule="evenodd" d="M30.9162 37.0001C35.4141 37 38.1807 37 42 37.0001C37.38 37.0001 0 37.0001 0 37.0001L21 37.0001L30.9162 37.0001Z" fill="#D9DDDC"/>
<path d="M30 53.9762C36.36 53.9762 39.1958 47.6525 41.4438 40.5245H0.0850088C0.842509 55.1776 8.82 53.9762 8.82 53.9762C8.82 53.9762 23.64 53.9762 30 53.9762Z" fill="#D9DDDC"/>
<path d="M0 37.0001C-3.2611e-07 38.2627 0.0287112 39.4354 0.0850088 40.5245H41.4438C41.8071 39.3725 42 38.1909 42 37.0001C37.38 37.0001 0 37.0001 0 37.0001Z" fill="#FF9292"/>
<path d="M24 0V31H0L12 15.5L24 0Z" fill="url(#paint0_linear_6_12)"/>
<path d="M24 0H25V37H24V0Z" fill="#987562"/>
<path fill-rule="evenodd" clip-rule="evenodd" d="M7 45V43C6.35022 43 5.88809 42.7587 5.57297 42.427L4.17157 43.8284C4.89543 44.5523 5.89543 45 7 45ZM11 41C11 42.1046 10.5523 43.1046 9.82842 43.8284L8.41894 42.4189C8.83726 41.9751 9 41.3774 9 41H11ZM5 41H3C3 39.8954 3.44771 38.8954 4.17157 38.1716L5.57296 39.573C5.16064 40.0069 5 40.5954 5 41Z" fill="#FF0000"/>
<path fill-rule="evenodd" clip-rule="evenodd" d="M9.82843 38.1716C9.10457 37.4477 8.10457 37 7 37V39C7.64424 39 8.10402 39.2469 8.41895 39.5811L9.82843 38.1716Z" fill="#FF0000"/>
<path d="M4.17157 38.1716L5.57296 39.573C5.88809 39.2413 6.35022 39 7 39V37C5.89543 37 4.89543 37.4477 4.17157 38.1716Z" fill="#D9D9D9"/>
<path d="M9 41H11C11 39.8954 10.5523 38.8954 9.82843 38.1716L8.41895 39.5811C8.83726 40.0249 9 40.6226 9 41Z" fill="#D9D9D9"/>
<path d="M7 43V45C7.9665 45 8.85294 44.6572 9.54437 44.0866C9.64315 44.0051 9.73794 43.9189 9.82842 43.8284L8.41894 42.4189C8.10401 42.7531 7.64424 43 7 43Z" fill="#D9D9D9"/>
<path d="M5 41H3C3 42.1046 3.44772 43.1046 4.17157 43.8284L5.57297 42.427C5.16064 41.9931 5 41.4046 5 41Z" fill="#D9D9D9"/>
<path fill-rule="evenodd" clip-rule="evenodd" d="M17 45V43C16.3502 43 15.8881 42.7587 15.573 42.427L14.1716 43.8284C14.8954 44.5523 15.8954 45 17 45ZM21 41C21 42.1046 20.5523 43.1046 19.8284 43.8284L18.4189 42.4189C18.8373 41.9751 19 41.3774 19 41H21ZM15 41H13C13 39.8954 13.4477 38.8954 14.1716 38.1716L15.573 39.573C15.1606 40.0069 15 40.5954 15 41Z" fill="#FF0000"/>
<path fill-rule="evenodd" clip-rule="evenodd" d="M19.8284 38.1716C19.1046 37.4477 18.1046 37 17 37V39C17.6442 39 18.104 39.2469 18.4189 39.5811L19.8284 38.1716Z" fill="#FF0000"/>
<path d="M14.1716 38.1716L15.573 39.573C15.8881 39.2413 16.3502 39 17 39V37C15.8954 37 14.8954 37.4477 14.1716 38.1716Z" fill="#D9D9D9"/>
<path d="M19 41H21C21 39.8954 20.5523 38.8954 19.8284 38.1716L18.4189 39.5811C18.8373 40.0249 19 40.6226 19 41Z" fill="#D9D9D9"/>
<path d="M17 43V45C17.9665 45 18.8529 44.6572 19.5444 44.0866C19.6431 44.0051 19.7379 43.9189 19.8284 43.8284L18.4189 42.4189C18.104 42.7531 17.6442 43 17 43Z" fill="#D9D9D9"/>
<path d="M15 41H13C13 42.1046 13.4477 43.1046 14.1716 43.8284L15.573 42.427C15.1606 41.9931 15 41.4046 15 41Z" fill="#D9D9D9"/>
<defs>
<linearGradient id="paint0_linear_6_12" x1="42" y1="2.69952e-06" x2="0.242284" y2="54.1867" gradientUnits="userSpaceOnUse">
<stop stop-color="#076585"/>
<stop offset="1" stop-color="white"/>
</linearGradient>
</defs>
</svg>
