<svg width="1500" height="108" viewBox="0 0 1500 108" fill="none" xmlns="http://www.w3.org/2000/svg">
<path d="M0 27.2514C0 27.2514 6.5 53.0027 66 27.2514C125.5 1.50006 125.5 1.50006 150.5 27.2514C175.5 53.0027 200 7.00006 241 27.2514C282 47.5027 344.5 43.0001 386.5 27.2514C428.5 11.5027 447 57.5001 534 27.2514C621 -2.99734 617.5 39.5001 669.5 27.2514C696.213 20.9591 780.5 46.2516 800 15.3758C819.5 -15.5 893.792 17.8896 913 27.2514C952.5 46.5027 937 39.5027 983 27.2514C1029 15.0001 1070.5 12.5027 1103.5 27.2514C1136.5 42 1198.5 59 1241 27.2514C1283.5 -4.4973 1299 -12.7486 1370.5 27.2514C1442 67.2513 1500 27.2514 1500 27.2514V107.251H0V27.2514Z" fill="#379FBB"/>
</svg>
