<svg width="1500" height="111" viewBox="0 0 1500 111" fill="none" xmlns="http://www.w3.org/2000/svg">
<path d="M0 30.24C0 30.24 31 9.24 66 30.24C101 51.24 110 52.24 150.5 30.24C191 8.23998 196 3.74002 241 30.24C286 56.74 293 80.24 386.5 30.24C480 -19.76 499 22.7401 534 30.24C569 37.7399 574 86.24 669.5 30.24C765 -25.76 868 9.24006 913 30.24C958 51.2399 933.5 6.24004 983 30.24C1032.5 54.24 1036 -1.75996 1103.5 30.24C1171 62.24 1189 63.74 1241 30.24C1293 -3.26004 1266.5 -4.25996 1370.5 30.24C1474.5 64.74 1500 30.24 1500 30.24V110.24H0V30.24Z" fill="#00657F"/>
</svg>
