<svg width="1500" height="99" viewBox="0 0 1500 99" fill="none" xmlns="http://www.w3.org/2000/svg">
<path d="M0 18.6632C0 18.6632 38 30.5388 66 18.6632C94 6.78765 116.5 6.78765 150.5 18.6632C184.5 30.5388 200 -1.58808 241 18.6632C282 38.9145 351 42.2487 393 26.5C435 10.7513 500 46.8265 534 18.6632C568 -9.50001 633.5 18.6632 669.5 18.6632C705.5 18.6632 744.5 -12.9247 800 6.78765C855.5 26.5 862.5 30.5388 913 18.6632C963.5 6.78765 934.5 0.499987 983 18.6632C1031.5 36.8265 1070.5 3.91459 1103.5 18.6632C1136.5 33.4119 1198.5 50.4119 1241 18.6632C1283.5 -13.0854 1337.5 30.5388 1370.5 18.6632C1403.5 6.78766 1500 18.6632 1500 18.6632V98.6632H0V18.6632Z" fill="#5CCFE0"/>
</svg>
