<svg width="1500" height="110" viewBox="0 0 1500 110" fill="none" xmlns="http://www.w3.org/2000/svg">
<path d="M0 29.2513C0 29.2513 3 1.0026 66 29.2513C129 57.5 93 7 150.5 29.2513C208 51.5026 165.5 2.0026 241 29.2513C316.5 56.5 277 1.5 386.5 29.2513C496 57.0026 534 29.2513 534 29.2513C534 29.2513 559 -13.5 669.5 29.2513C780 72.0026 861 -11.7487 913 29.2513C965 70.2513 955.663 29.2513 983 29.2513C1030.06 29.2513 1061.5 46.7513 1103.5 29.2513C1145.5 11.7513 1179 -26.7487 1241 29.2513C1303 85.2513 1299 -10.7487 1370.5 29.2513C1442 69.2513 1500 29.2513 1500 29.2513V109.251H0V29.2513Z" fill="#358B9E"/>
</svg>
